<svg version="1.2" xmlns="http://www.w3.org/2000/svg" viewBox="0 0 375 375" width="375" height="375">
	<title>f4b205c6508bbc2c4f7338c7570f56aa_67ca9efd6323a-001</title>
	<defs>
		<clipPath clipPathUnits="userSpaceOnUse" id="cp1">
			<path d="m6.88 54h361.49v267h-361.5z"/>
		</clipPath>
		<clipPath clipPathUnits="userSpaceOnUse" id="cp2">
			<path d="m52.35 54.19l30.32 14.76 0.2 0.1 47.06 36.86 0.1 0.1 57.46 61.92-1.09 1.29c-36.16-23.78-71.43-46.57-108.09-69.56l-0.4-0.39-26.75-43.79zm-31.21 184.29q-0.15 0-0.3 0l-13.47 2.87-0.5-1.59 11.5-5.45c0.39-0.1 0.49-0.49 0.49-0.79l-1.49-12.49 1.69-0.69 14.56 18.92-12.38-0.89zm16.15 14.17l0.89 1.49-10.3 10.1-0.5 0.3-13.08 3.87-1.09-1.49 6.14-9.22 0.7-0.49 17.14-4.66zm27.15-12.39l-9.71 7.73c-0.1 0.1-0.2 0.1-0.2 0.2l-8.03 11.3-1.48-0.8 4.75-11.79c0.1-0.39 0-0.79-0.29-0.99l-9.52-8.12 0.8-1.59 23.58 4.06zm21.5-15.55l0.2 1.68-18.33 5.75h-0.7l-34.87-11.79 0.39-1.59 53.41 5.95zm7.93-4.16l2.77-6.15 0.5-0.49 9.31-5.05 0.4-0.1 18.23-2.68 0.79 1.59c-5.85 5.35-9.91 9.31-15.36 15.06l-16.64-2.08zm-26.55 34.57l-1.09-1.48 10.3-15.36 0.69-0.5 28.44-7.72 0.89 1.48-17.04 16.75-0.5 0.3-21.7 6.43zm-31.11 22.89l1.59-3.47 0.49-0.49 4.66-2.48 0.4-0.1 8.91-1.29 0.8 1.59c-2.88 2.67-4.96 4.65-7.63 7.53l-9.12-1.19zm18.53 11.1l0.2 1.68-9.51 2.97h-0.69l-18.34-6.24 0.4-1.59 28.04 3.18zm0.3-10.9l26.55-14.18 1.09 1.29-6.54 8.33-0.59 0.39-19.91 5.65zm43.59 11.09c0.2-0.09 0.3-0.29 0.39-0.49 0.2 0 0.4 0 0.6-0.1l19.42-10.1 0.99 1.38-28.43 25.07-0.4 0.2-40.72 15.55-0.99-1.48 24.17-26.16 0.7-0.4 21.4-2.18c0.1 0 0.19-0.09 0.29-0.09l2.58-1.39zm-0.1-1.78q-0.3-0.15-0.59 0l-0.2 0.1-22.99 1.58 12.09-16.44 17.83-1h0.2l25.96-6.93 0.69 1.58-32.69 20.71c-0.1 0.1-0.2 0.2-0.3 0.4zm89.67-22.89l-0.09 0.02-0.01-0.02zm-0.09 0.02l0.78 1.56-15.16 11.8-0.69 0.2-36.76 1.09-0.2-1.59zm-3.58-39.16l-47.66 22-0.19 0.09-41.12 9.61-0.79-1.58 43.89-41.31 17.53 6.14h0.2l27.84 3.27zm-24.96-12.79l-0.5-0.19-12.98-9.32 0.69-1.58 53.31 8.81 0.1 1.79-14.37 4.65h-0.59l-25.77-4.06zm12.09 45.28h-0.5l-24.37-5.84-0.2-1.79 49.54-23.68-1.09 25.96zm86.3-30.91l-30.32 32.99-0.39 0.3-36.17 14.96-0.89-1.48 33.79-27.55c0.1-0.1 0.1-0.19 0.19-0.3l11.1-26.65 0.4-0.49 18.63-14.27zm-39.43 9.91l-0.31 0.49-15.55 16.45-1.68-0.69 1.29-18.53 0.29-0.7 18.73-18.92c0.1 0 0.19-0.1 0.19-0.2 0-0.1 0.11-0.1 0.2-0.2l1.59-1.58 1.48 0.89-6.43 22.99zm39.13-55.29l-4.46 16.35-0.39 0.59-20.91 14.67-1.39-1.09 19.92-54.2 1.78 0.1 5.45 23.08zm40.13-39.92l70.24-13.58 0.4 1.59-65.49 24.07zm11.1 16.45l1.09 1.29-22 25.96c0 0-0.1 0.09-0.1 0.19l-12.78 31.51-1.68-0.4 1.09-35.86 34.38-22.79zm-37.16-6.44l17.94-0.4 0.69 1.69-2.97 2.97c-8.13 7.93-15.96 15.66-24.28 23.28l-5.05-17.04 0.79-0.3c0.4-0.19 0.69-0.69 0.5-1.09-0.1-0.29-0.4-0.49-0.7-0.49-0.59 0-1.18-0.2-1.68-0.4-0.5-0.2-0.99-0.59-1.39-0.99-0.49-0.49-0.89-0.99-1.09-1.58-0.29-0.6-0.39-1.19-0.39-1.88 0-0.7 0.19-1.29 0.39-1.89 0.3-0.59 0.69-1.19 1.09-1.58 0.5-0.5 0.99-0.89 1.59-1.09 0.59-0.3 1.19-0.4 1.88-0.4 0.69 0 1.29 0.2 1.88 0.4 0.6 0.3 1.19 0.69 1.59 1.09 0.49 0.49 0.89 0.99 1.09 1.58 0.29 0.6 0.4 1.19 0.4 1.89 0 0.69-0.2 1.28-0.4 1.88-0.3 0.59-0.69 1.19-1.09 1.58-0.3 0.4-0.3 0.9 0 1.19 0.2 0.3 0.59 0.3 0.89 0.2l3.96-1.49c0.2 0 0.3-0.09 0.4-0.29l4.06-6.64zm-32.4-17.93v-1.79l20.02-4.75h0.49l31.61 7.72-0.1 1.79-25.66 4.36h-0.5l-26.06-7.33zm-26.95 33.58l-1.29-1.18 7.44-15.56 0.29-0.4 12.88-11.29 18.23 5.55-37.45 22.98zm3.27 9.91l28.63-19.71 1.39 1.19-24.87 53.9-11.69-26.95c0-0.11-0.1-0.11-0.1-0.2l-23.48-28.24 1.19-1.19 28.04 21.3c0.3 0.2 0.69 0.2 0.99 0zm-111.27-103.83l0.99-1.19 90.07 68.36 0.29 0.3 10.9 16.35-1.29 1.19c-28.93-21.31-54.29-43.7-80.65-67.08-6.73-5.95-13.57-11.99-20.31-17.93zm100.27 129.79l-0.03-0.01 0.03-0.09zm-0.03-0.01l-0.46 1.5-65.9-11.59-16.84-26.86 1.19-1.28zm-80.92-68.85l0.2 0.1 80.35 58.66-0.79 1.38-88.88-39.93-0.49-0.39-25.17-34.08 1.09-1.39 33.69 15.55z"/>
		</clipPath>
		<linearGradient id="g1" x2="1" gradientUnits="userSpaceOnUse" gradientTransform="matrix(-395.066,200.476,-181.619,-357.904,389.308,95.443)">
			<stop offset="0" stop-color="#ffc500"/>
			<stop offset=".125" stop-color="#ffc500"/>
			<stop offset=".188" stop-color="#ffc500"/>
			<stop offset=".219" stop-color="#ffc500"/>
			<stop offset=".234" stop-color="#ffc500"/>
			<stop offset=".242" stop-color="#ffc500"/>
			<stop offset=".246" stop-color="#fec400"/>
			<stop offset=".25" stop-color="#fec300"/>
			<stop offset=".254" stop-color="#fec100"/>
			<stop offset=".258" stop-color="#fdc000"/>
			<stop offset=".262" stop-color="#fdbf00"/>
			<stop offset=".266" stop-color="#fdbe00"/>
			<stop offset=".27" stop-color="#fcbd00"/>
			<stop offset=".273" stop-color="#fcbc00"/>
			<stop offset=".277" stop-color="#fbbb00"/>
			<stop offset=".281" stop-color="#fbba00"/>
			<stop offset=".285" stop-color="#fbb900"/>
			<stop offset=".289" stop-color="#fab800"/>
			<stop offset=".293" stop-color="#fab600"/>
			<stop offset=".297" stop-color="#fab500"/>
			<stop offset=".301" stop-color="#f9b400"/>
			<stop offset=".305" stop-color="#f9b300"/>
			<stop offset=".309" stop-color="#f8b200"/>
			<stop offset=".313" stop-color="#f8b100"/>
			<stop offset=".316" stop-color="#f8b000"/>
			<stop offset=".32" stop-color="#f7af00"/>
			<stop offset=".324" stop-color="#f7ae00"/>
			<stop offset=".328" stop-color="#f6ac00"/>
			<stop offset=".332" stop-color="#f6ab00"/>
			<stop offset=".336" stop-color="#f6aa00"/>
			<stop offset=".34" stop-color="#f5a900"/>
			<stop offset=".344" stop-color="#f5a800"/>
			<stop offset=".348" stop-color="#f5a700"/>
			<stop offset=".352" stop-color="#f4a600"/>
			<stop offset=".355" stop-color="#f4a500"/>
			<stop offset=".359" stop-color="#f3a400"/>
			<stop offset=".363" stop-color="#f3a300"/>
			<stop offset=".367" stop-color="#f3a100"/>
			<stop offset=".371" stop-color="#f2a000"/>
			<stop offset=".375" stop-color="#f29f00"/>
			<stop offset=".379" stop-color="#f19e00"/>
			<stop offset=".383" stop-color="#f19d00"/>
			<stop offset=".387" stop-color="#f19c00"/>
			<stop offset=".391" stop-color="#f09b00"/>
			<stop offset=".395" stop-color="#f09a00"/>
			<stop offset=".398" stop-color="#f09900"/>
			<stop offset=".402" stop-color="#ef9700"/>
			<stop offset=".406" stop-color="#ef9600"/>
			<stop offset=".41" stop-color="#ee9500"/>
			<stop offset=".414" stop-color="#ee9400"/>
			<stop offset=".418" stop-color="#ee9300"/>
			<stop offset=".422" stop-color="#ed9200"/>
			<stop offset=".426" stop-color="#ed9100"/>
			<stop offset=".43" stop-color="#ed9000"/>
			<stop offset=".434" stop-color="#ec8f00"/>
			<stop offset=".438" stop-color="#ec8e00"/>
			<stop offset=".441" stop-color="#eb8c00"/>
			<stop offset=".445" stop-color="#eb8b00"/>
			<stop offset=".449" stop-color="#eb8a00"/>
			<stop offset=".453" stop-color="#ea8900"/>
			<stop offset=".457" stop-color="#ea8800"/>
			<stop offset=".461" stop-color="#e98700"/>
			<stop offset=".465" stop-color="#e98600"/>
			<stop offset=".469" stop-color="#e98500"/>
			<stop offset=".473" stop-color="#e88400"/>
			<stop offset=".477" stop-color="#e88200"/>
			<stop offset=".48" stop-color="#e88100"/>
			<stop offset=".484" stop-color="#e78000"/>
			<stop offset=".488" stop-color="#e77f00"/>
			<stop offset=".492" stop-color="#e67e00"/>
			<stop offset=".496" stop-color="#e67d00"/>
			<stop offset=".5" stop-color="#e67c00"/>
			<stop offset=".504" stop-color="#e57b00"/>
			<stop offset=".508" stop-color="#e57a00"/>
			<stop offset=".512" stop-color="#e57900"/>
			<stop offset=".516" stop-color="#e47700"/>
			<stop offset=".52" stop-color="#e47600"/>
			<stop offset=".523" stop-color="#e37500"/>
			<stop offset=".527" stop-color="#e37400"/>
			<stop offset=".531" stop-color="#e37300"/>
			<stop offset=".535" stop-color="#e27200"/>
			<stop offset=".539" stop-color="#e27100"/>
			<stop offset=".543" stop-color="#e17000"/>
			<stop offset=".547" stop-color="#e16f00"/>
			<stop offset=".551" stop-color="#e16d00"/>
			<stop offset=".555" stop-color="#e06c00"/>
			<stop offset=".559" stop-color="#e06b00"/>
			<stop offset=".563" stop-color="#e06a00"/>
			<stop offset=".566" stop-color="#df6900"/>
			<stop offset=".57" stop-color="#df6800"/>
			<stop offset=".574" stop-color="#de6700"/>
			<stop offset=".578" stop-color="#de6600"/>
			<stop offset=".582" stop-color="#de6500"/>
			<stop offset=".586" stop-color="#dd6400"/>
			<stop offset=".59" stop-color="#dd6200"/>
			<stop offset=".594" stop-color="#dc6100"/>
			<stop offset=".598" stop-color="#dc6000"/>
			<stop offset=".602" stop-color="#dc5f00"/>
			<stop offset=".605" stop-color="#db5e00"/>
			<stop offset=".609" stop-color="#db5d00"/>
			<stop offset=".613" stop-color="#db5c00"/>
			<stop offset=".617" stop-color="#da5b00"/>
			<stop offset=".621" stop-color="#da5a00"/>
			<stop offset=".625" stop-color="#d95800"/>
			<stop offset=".629" stop-color="#d95700"/>
			<stop offset=".633" stop-color="#d95600"/>
			<stop offset=".637" stop-color="#d85500"/>
			<stop offset=".641" stop-color="#d85400"/>
			<stop offset=".645" stop-color="#d85300"/>
			<stop offset=".648" stop-color="#d75200"/>
			<stop offset=".652" stop-color="#d75100"/>
			<stop offset=".656" stop-color="#d65000"/>
			<stop offset=".66" stop-color="#d64f00"/>
			<stop offset=".664" stop-color="#d64d00"/>
			<stop offset=".668" stop-color="#d54c00"/>
			<stop offset=".672" stop-color="#d54b00"/>
			<stop offset=".676" stop-color="#d44a00"/>
			<stop offset=".68" stop-color="#d44900"/>
			<stop offset=".684" stop-color="#d44800"/>
			<stop offset=".688" stop-color="#d34700"/>
			<stop offset=".691" stop-color="#d34600"/>
			<stop offset=".695" stop-color="#d34500"/>
			<stop offset=".699" stop-color="#d24300"/>
			<stop offset=".703" stop-color="#d24200"/>
			<stop offset=".707" stop-color="#d14100"/>
			<stop offset=".711" stop-color="#d14000"/>
			<stop offset=".715" stop-color="#d13f00"/>
			<stop offset=".719" stop-color="#d03e00"/>
			<stop offset=".723" stop-color="#d03d00"/>
			<stop offset=".727" stop-color="#cf3c00"/>
			<stop offset=".73" stop-color="#cf3b00"/>
			<stop offset=".734" stop-color="#cf3a00"/>
			<stop offset=".738" stop-color="#ce3800"/>
			<stop offset=".742" stop-color="#ce3700"/>
			<stop offset=".746" stop-color="#ce3600"/>
			<stop offset=".75" stop-color="#cd3500"/>
			<stop offset=".754" stop-color="#cd3400"/>
			<stop offset=".758" stop-color="#cc3300"/>
			<stop offset=".762" stop-color="#cc3200"/>
			<stop offset=".766" stop-color="#cc3100"/>
			<stop offset=".77" stop-color="#cb3000"/>
			<stop offset=".773" stop-color="#cb2e00"/>
			<stop offset=".777" stop-color="#cb2d00"/>
			<stop offset=".781" stop-color="#ca2c00"/>
			<stop offset=".785" stop-color="#ca2b00"/>
			<stop offset=".789" stop-color="#c92a00"/>
			<stop offset=".793" stop-color="#c92900"/>
			<stop offset=".797" stop-color="#c92800"/>
			<stop offset=".801" stop-color="#c82700"/>
			<stop offset=".805" stop-color="#c82600"/>
			<stop offset=".809" stop-color="#c72500"/>
			<stop offset=".813" stop-color="#c72300"/>
			<stop offset=".816" stop-color="#c72200"/>
			<stop offset=".82" stop-color="#c62100"/>
			<stop offset=".824" stop-color="#c62000"/>
			<stop offset=".828" stop-color="#c61f00"/>
			<stop offset=".832" stop-color="#c51e00"/>
			<stop offset=".836" stop-color="#c51d00"/>
			<stop offset=".84" stop-color="#c41c00"/>
			<stop offset=".844" stop-color="#c41b00"/>
			<stop offset=".848" stop-color="#c41900"/>
			<stop offset=".852" stop-color="#c31800"/>
			<stop offset=".855" stop-color="#c31700"/>
			<stop offset=".859" stop-color="#c21600"/>
			<stop offset=".863" stop-color="#c21600"/>
			<stop offset=".867" stop-color="#c21500"/>
			<stop offset=".875" stop-color="#c21500"/>
			<stop offset="1" stop-color="#c21500"/>
		</linearGradient>
	</defs>
	<style>
		.s0 { fill: url(#g1) } 
	</style>
	<g id="Clip-Path" clip-path="url(#cp1)">
		<g>
			<g id="Clip-Path" clip-path="url(#cp2)">
				<g>
					<path class="s0" d="m6.9 54.2v266.6h361.5v-266.6z"/>
				</g>
			</g>
		</g>
	</g>
</svg>